<svg xmlns="http://www.w3.org/2000/svg" version="1.1" xmlns:xlink="http://www.w3.org/1999/xlink" xmlns:svgjs="http://svgjs.dev/svgjs" width="128" height="128" viewBox="0 0 128 128"><g transform="matrix(0.8046875,0,0,0.8046875,12.333870967741937,12.333870967741937)"><svg viewBox="0 0 155 155" data-background-color="#ffffff" preserveAspectRatio="xMidYMid meet" height="128" width="128" xmlns="http://www.w3.org/2000/svg" xmlns:xlink="http://www.w3.org/1999/xlink"><g id="tight-bounds" transform="matrix(1,0,0,1,0.25,0.25)"><svg viewBox="0 0 154.5 154.5" height="154.5" width="154.5"><g><svg></svg></g><g><svg viewBox="0 0 154.5 154.5" height="154.5" width="154.5"><g transform="matrix(1,0,0,1,52.58029891525424,47.74637100000001)"><svg viewBox="0 0 49.33940216949152 59.007257999999986" height="59.007257999999986" width="49.33940216949152"><g><svg viewBox="0 0 49.33940216949152 59.007257999999986" height="59.007257999999986" width="49.33940216949152"><g><svg viewBox="0 0 49.33940216949152 59.007257999999986" height="59.007257999999986" width="49.33940216949152"><g id="textblocktransform"><svg viewBox="0 0 49.33940216949152 59.007257999999986" height="59.007257999999986" width="49.33940216949152" id="textblock"><g><svg viewBox="0 0 49.33940216949152 59.007257999999986" height="59.007257999999986" width="49.33940216949152"><g transform="matrix(1,0,0,1,0,0)"><svg width="49.33940216949152" viewBox="2.55 -26.05 22.2 26.55" height="59.007257999999986" data-palette-color="#d21312"><path d="M14.15-26.05Q17.2-26.05 19.63-24.73 22.05-23.4 23.4-21 24.75-18.6 24.75-15.5L24.75-15.5 20.1-15.5Q20.1-18.6 18.53-20.45 16.95-22.3 14-22.3L14-22.3Q10.9-22.3 9.08-20.23 7.25-18.15 7.25-14.55L7.25-14.55 7.25-11.85Q7.25-7.5 9.05-5.38 10.85-3.25 14.15-3.25L14.15-3.25Q17.2-3.25 18.73-5.08 20.25-6.9 20.25-10L20.25-10 24.75-10Q24.75-5.2 21.88-2.35 19 0.5 14.2 0.5L14.2 0.5 13.8 0.5Q10.4 0.5 7.85-1.07 5.3-2.65 3.93-5.5 2.55-8.35 2.55-12.15L2.55-12.15 2.55-13.35Q2.55-17.15 3.95-20.03 5.35-22.9 7.9-24.48 10.45-26.05 13.75-26.05L13.75-26.05 14.15-26.05Z" opacity="1" transform="matrix(1,0,0,1,0,0)" fill="#d21312" class="undefined-text-0" data-fill-palette-color="primary" id="text-0"></path></svg></g></svg></g></svg></g></svg></g></svg></g></svg></g><g><path d="M50.922 33.816A24.67 24.67 0 0 1 103.578 33.816L98.257 33.816A19.348 19.348 0 0 0 56.243 33.816L50.922 33.816M50.922 120.684A24.67 24.67 0 0 0 103.578 120.684L98.257 120.684A19.348 19.348 0 0 1 56.243 120.684L50.922 120.684" fill="#8d021f" stroke="transparent" data-fill-palette-color="tertiary"></path></g></svg></g><defs></defs></svg><rect width="154.5" height="154.5" fill="none" stroke="none" visibility="hidden"></rect></g></svg></g></svg>